<?xml version="1.0" standalone="no"?>
<!DOCTYPE svg PUBLIC "-//W3C//DTD SVG 20010904//EN"
 "http://www.w3.org/TR/2001/REC-SVG-20010904/DTD/svg10.dtd">
<svg version="1.0" xmlns="http://www.w3.org/2000/svg"
 width="233.000000pt" height="79.000000pt" viewBox="0 0 233.000000 79.000000"
 preserveAspectRatio="xMidYMid meet">

<g transform="translate(0.000000,79.000000) scale(0.100000,-0.100000)"
fill="#000000" stroke="none">
<path d="M930 541 c0 -185 2 -210 17 -215 15 -6 16 5 10 121 -4 70 -7 167 -7
216 0 51 -4 87 -10 87 -6 0 -10 -76 -10 -209z"/>
<path d="M1310 648 l0 -103 -85 -2 c-80 -2 -85 -1 -85 18 0 12 16 37 35 56 31
31 40 35 80 31 31 -2 45 1 45 9 0 8 -14 13 -39 13 -22 0 -47 3 -57 7 -11 4
-15 3 -11 -4 4 -6 0 -14 -9 -17 -8 -3 -12 -2 -9 4 16 25 -42 -4 -67 -34 -17
-21 -17 -21 -18 15 0 42 11 49 72 49 32 0 39 3 34 16 -3 9 -6 18 -6 20 0 9
-78 3 -120 -10 l-45 -13 -3 -87 c-3 -78 -5 -86 -22 -86 -13 0 -20 -7 -20 -20
0 -13 7 -20 20 -20 17 0 19 -8 22 -67 l3 -68 33 -3 32 -3 0 52 0 52 24 -22
c13 -12 36 -24 52 -27 16 -3 33 -9 38 -14 10 -10 104 16 120 33 8 8 10 62 8
170 -5 173 -22 217 -22 55z m-150 -2 c0 -2 -8 -10 -17 -17 -16 -13 -17 -12 -4
4 13 16 21 21 21 13z m-53 -108 c-3 -8 -6 -5 -6 6 -1 11 2 17 5 13 3 -3 4 -12
1 -19z m183 -73 c0 -25 -3 -45 -8 -45 -4 0 -6 20 -4 45 2 25 6 45 8 45 2 0 4
-20 4 -45z m-32 2 c5 -39 -15 -55 -55 -45 -28 7 -63 48 -63 73 0 3 26 5 58 3
54 -3 57 -4 60 -31z"/>
<path d="M0 105 c0 -88 1 -95 20 -95 17 0 20 7 20 40 l0 40 40 0 c29 0 40 4
40 15 0 11 -11 15 -40 15 -36 0 -40 3 -40 25 0 23 4 25 45 25 33 0 45 4 45 15
0 12 -14 15 -65 15 l-65 0 0 -95z"/>
<path d="M202 123 c-17 -43 -33 -86 -37 -95 -5 -13 -2 -18 10 -18 9 0 19 9 22
20 4 17 14 20 53 20 40 0 50 -4 55 -20 3 -11 13 -20 22 -20 8 0 13 6 10 13 -3
6 -20 49 -38 95 -42 108 -57 109 -97 5z m66 4 c16 -46 16 -47 -18 -47 -16 0
-30 3 -30 7 0 14 24 73 30 73 3 0 11 -15 18 -33z"/>
<path d="M386 179 c-23 -34 -6 -62 50 -80 52 -18 63 -31 44 -54 -18 -21 -58
-18 -72 5 -15 23 -38 27 -38 7 0 -44 92 -67 130 -32 40 36 19 80 -50 100 -39
12 -52 25 -39 41 15 19 58 18 65 -1 8 -19 34 -20 34 0 0 38 -99 49 -124 14z"/>
<path d="M560 105 c0 -88 1 -95 20 -95 17 0 20 7 20 45 l0 45 40 0 40 0 0 -45
c0 -38 3 -45 20 -45 19 0 20 7 20 95 0 88 -1 95 -20 95 -17 0 -20 -7 -20 -40
l0 -40 -40 0 -40 0 0 40 c0 33 -3 40 -20 40 -19 0 -20 -7 -20 -95z"/>
<path d="M760 105 c0 -88 1 -95 20 -95 19 0 20 7 20 95 0 88 -1 95 -20 95 -19
0 -20 -7 -20 -95z"/>
<path d="M865 175 c-34 -33 -35 -103 -2 -140 45 -53 140 -28 153 40 14 75 -21
125 -86 125 -30 0 -47 -7 -65 -25z m105 -15 c41 -41 15 -130 -37 -130 -41 0
-63 27 -63 76 0 33 5 46 22 58 30 21 54 20 78 -4z"/>
<path d="M1060 105 c0 -76 3 -95 15 -95 11 0 15 16 17 67 l3 68 42 -68 c60
-96 73 -91 73 28 0 76 -3 95 -15 95 -11 0 -15 -16 -17 -67 l-3 -68 -40 67
c-25 42 -47 68 -57 68 -16 0 -18 -11 -18 -95z"/>
<path d="M1373 185 c-58 -41 -46 -142 21 -170 29 -12 42 -13 73 -2 35 11 38
15 41 55 l3 42 -40 0 c-30 0 -41 -4 -41 -15 0 -9 9 -15 25 -15 29 0 36 -34 9
-44 -57 -22 -97 10 -92 75 2 35 8 46 30 59 25 14 31 13 63 -4 42 -23 55 -16
26 13 -25 25 -86 28 -118 6z"/>
<path d="M1560 105 c0 -78 3 -95 15 -95 11 0 15 11 15 40 0 35 3 40 24 40 16
0 31 -12 50 -40 32 -48 66 -58 42 -12 -8 16 -22 34 -31 42 -14 12 -13 14 7 24
30 15 37 65 12 83 -10 7 -44 13 -76 13 l-58 0 0 -95z m120 40 c0 -23 -4 -25
-45 -25 -41 0 -45 2 -45 25 0 23 4 25 45 25 41 0 45 -2 45 -25z"/>
<path d="M1780 175 c-34 -37 -34 -106 1 -141 29 -28 80 -35 117 -15 26 14 46
73 37 109 -18 72 -106 99 -155 47z m94 -1 c24 -9 39 -66 26 -100 -29 -74 -110
-52 -110 29 0 60 35 90 84 71z"/>
<path d="M1980 122 c0 -92 15 -114 76 -114 57 0 74 27 74 118 0 59 -3 74 -15
74 -12 0 -15 -15 -15 -73 0 -77 -9 -97 -45 -97 -36 0 -45 20 -45 97 0 58 -3
73 -15 73 -12 0 -15 -15 -15 -78z"/>
<path d="M2180 105 c0 -78 3 -95 15 -95 10 0 15 10 15 34 0 32 2 34 41 39 50
7 72 26 72 63 0 38 -27 54 -90 54 l-53 0 0 -95z m108 38 c-3 -24 -8 -28 -40
-31 -36 -3 -38 -2 -38 27 0 30 2 31 41 31 38 0 40 -1 37 -27z"/>
</g>
</svg>
